<svg id="visual" viewBox="0 0 900 600" width="900" height="600" xmlns="http://www.w3.org/2000/svg" xmlns:xlink="http://www.w3.org/1999/xlink" version="1.1"><path d="M0 115L82 115L82 67L164 67L164 109L245 109L245 85L327 85L327 109L409 109L409 103L491 103L491 79L573 79L573 127L655 127L655 97L736 97L736 55L818 55L818 109L900 109L900 115L900 0L900 0L818 0L818 0L736 0L736 0L655 0L655 0L573 0L573 0L491 0L491 0L409 0L409 0L327 0L327 0L245 0L245 0L164 0L164 0L82 0L82 0L0 0Z" fill="#fa7268"></path><path d="M0 265L82 265L82 283L164 283L164 283L245 283L245 265L327 265L327 265L409 265L409 343L491 343L491 331L573 331L573 223L655 223L655 295L736 295L736 229L818 229L818 253L900 253L900 265L900 113L900 107L818 107L818 53L736 53L736 95L655 95L655 125L573 125L573 77L491 77L491 101L409 101L409 107L327 107L327 83L245 83L245 107L164 107L164 65L82 65L82 113L0 113Z" fill="#ea5e66"></path><path d="M0 433L82 433L82 385L164 385L164 427L245 427L245 439L327 439L327 397L409 397L409 421L491 421L491 439L573 439L573 433L655 433L655 451L736 451L736 343L818 343L818 403L900 403L900 397L900 263L900 251L818 251L818 227L736 227L736 293L655 293L655 221L573 221L573 329L491 329L491 341L409 341L409 263L327 263L327 263L245 263L245 281L164 281L164 281L82 281L82 263L0 263Z" fill="#d84a64"></path><path d="M0 499L82 499L82 481L164 481L164 523L245 523L245 529L327 529L327 445L409 445L409 469L491 469L491 523L573 523L573 493L655 493L655 547L736 547L736 439L818 439L818 505L900 505L900 481L900 395L900 401L818 401L818 341L736 341L736 449L655 449L655 431L573 431L573 437L491 437L491 419L409 419L409 395L327 395L327 437L245 437L245 425L164 425L164 383L82 383L82 431L0 431Z" fill="#c53762"></path><path d="M0 601L82 601L82 601L164 601L164 601L245 601L245 601L327 601L327 601L409 601L409 601L491 601L491 601L573 601L573 601L655 601L655 601L736 601L736 601L818 601L818 601L900 601L900 601L900 479L900 503L818 503L818 437L736 437L736 545L655 545L655 491L573 491L573 521L491 521L491 467L409 467L409 443L327 443L327 527L245 527L245 521L164 521L164 479L82 479L82 497L0 497Z" fill="#b0235f"></path></svg>